<svg xmlns="http://www.w3.org/2000/svg" xmlns:xlink="http://www.w3.org/1999/xlink" width="1200" zoomAndPan="magnify" viewBox="0 0 900 359.999987" height="480" preserveAspectRatio="xMidYMid meet" version="1.0"><defs><g/><clipPath id="5042028c03"><path d="M 0 42.222656 L 275.558594 42.222656 L 275.558594 317.777344 L 0 317.777344 Z M 0 42.222656 " clip-rule="nonzero"/></clipPath><clipPath id="de31db0c84"><path d="M 137.777344 42.222656 C 61.6875 42.222656 0 103.90625 0 180 C 0 256.09375 61.6875 317.777344 137.777344 317.777344 C 213.871094 317.777344 275.558594 256.09375 275.558594 180 C 275.558594 103.90625 213.871094 42.222656 137.777344 42.222656 Z M 137.777344 42.222656 " clip-rule="nonzero"/></clipPath><clipPath id="cc188fb9ce"><path d="M 0 0.222656 L 275.558594 0.222656 L 275.558594 275.777344 L 0 275.777344 Z M 0 0.222656 " clip-rule="nonzero"/></clipPath><clipPath id="7133c77a07"><path d="M 137.777344 0.222656 C 61.6875 0.222656 0 61.90625 0 138 C 0 214.09375 61.6875 275.777344 137.777344 275.777344 C 213.871094 275.777344 275.558594 214.09375 275.558594 138 C 275.558594 61.90625 213.871094 0.222656 137.777344 0.222656 Z M 137.777344 0.222656 " clip-rule="nonzero"/></clipPath><clipPath id="021539a6ed"><rect x="0" width="276" y="0" height="276"/></clipPath><clipPath id="98f73a80bd"><path d="M 42 115.273438 L 144 115.273438 L 144 245 L 42 245 Z M 42 115.273438 " clip-rule="nonzero"/></clipPath><clipPath id="cee269d9d3"><path d="M 165 186 L 217 186 L 217 250 L 165 250 Z M 165 186 " clip-rule="nonzero"/></clipPath><clipPath id="b2d89c0243"><path d="M 122.414062 181.195312 L 193.476562 110.132812 L 261.890625 178.546875 L 190.828125 249.609375 Z M 122.414062 181.195312 " clip-rule="nonzero"/></clipPath><clipPath id="4f7edf5942"><path d="M 122.414062 181.195312 L 193.476562 110.132812 L 261.890625 178.546875 L 190.828125 249.609375 Z M 122.414062 181.195312 " clip-rule="nonzero"/></clipPath><clipPath id="863144931a"><path d="M 156 176 L 226 176 L 226 183 L 156 183 Z M 156 176 " clip-rule="nonzero"/></clipPath><clipPath id="8167251974"><path d="M 122.414062 181.195312 L 193.476562 110.132812 L 261.890625 178.546875 L 190.828125 249.609375 Z M 122.414062 181.195312 " clip-rule="nonzero"/></clipPath><clipPath id="1e2aa4cf26"><path d="M 122.414062 181.195312 L 193.476562 110.132812 L 261.890625 178.546875 L 190.828125 249.609375 Z M 122.414062 181.195312 " clip-rule="nonzero"/></clipPath><clipPath id="ef8f9f2a25"><path d="M 163 161 L 219 161 L 219 173 L 163 173 Z M 163 161 " clip-rule="nonzero"/></clipPath><clipPath id="445b5b6c02"><path d="M 122.414062 181.195312 L 193.476562 110.132812 L 261.890625 178.546875 L 190.828125 249.609375 Z M 122.414062 181.195312 " clip-rule="nonzero"/></clipPath><clipPath id="3ec8576273"><path d="M 122.414062 181.195312 L 193.476562 110.132812 L 261.890625 178.546875 L 190.828125 249.609375 Z M 122.414062 181.195312 " clip-rule="nonzero"/></clipPath><clipPath id="825872b63b"><path d="M 169 111 L 213 111 L 213 159 L 169 159 Z M 169 111 " clip-rule="nonzero"/></clipPath><clipPath id="c76fbed66e"><path d="M 122.414062 181.195312 L 193.476562 110.132812 L 261.890625 178.546875 L 190.828125 249.609375 Z M 122.414062 181.195312 " clip-rule="nonzero"/></clipPath><clipPath id="97b7b5dc63"><path d="M 122.414062 181.195312 L 193.476562 110.132812 L 261.890625 178.546875 L 190.828125 249.609375 Z M 122.414062 181.195312 " clip-rule="nonzero"/></clipPath><clipPath id="eb0029ca60"><path d="M 276 24 L 339 24 L 339 115.441406 L 276 115.441406 Z M 276 24 " clip-rule="nonzero"/></clipPath><clipPath id="5a7a15ad44"><path d="M 470 24 L 533 24 L 533 115.441406 L 470 115.441406 Z M 470 24 " clip-rule="nonzero"/></clipPath><clipPath id="4be5d5c141"><path d="M 544 24 L 607 24 L 607 115.441406 L 544 115.441406 Z M 544 24 " clip-rule="nonzero"/></clipPath><clipPath id="79739944dc"><rect x="0" width="612" y="0" height="116"/></clipPath></defs><g clip-path="url(#5042028c03)"><g clip-path="url(#de31db0c84)"><g transform="matrix(1, 0, 0, 1, 0, 42)"><g clip-path="url(#021539a6ed)"><g clip-path="url(#cc188fb9ce)"><g clip-path="url(#7133c77a07)"><path fill="#00471e" d="M 0 0.222656 L 275.558594 0.222656 L 275.558594 275.777344 L 0 275.777344 Z M 0 0.222656 " fill-opacity="1" fill-rule="nonzero"/></g></g></g></g></g></g><g clip-path="url(#98f73a80bd)"><path fill="#ffffff" d="M 136.714844 135.773438 L 129.878906 135.773438 C 126.109375 135.773438 123.046875 132.710938 123.046875 128.9375 L 123.046875 122.105469 C 123.046875 118.332031 126.109375 115.273438 129.878906 115.273438 L 136.714844 115.273438 C 140.484375 115.273438 143.546875 118.332031 143.546875 122.105469 L 143.546875 128.9375 C 143.546875 132.710938 140.484375 135.773438 136.714844 135.773438 Z M 143.546875 208.902344 C 143.546875 215.40625 142.089844 236.117188 124.816406 243.988281 C 123.109375 244.769531 121.113281 244.640625 119.40625 243.867188 L 108.875 239.097656 C 106.351562 237.957031 106.230469 234.539062 108.5625 233.058594 C 118.539062 226.722656 123.046875 217.660156 123.046875 208.902344 L 123.046875 156.269531 C 123.046875 152.5 126.109375 149.4375 129.878906 149.4375 L 136.714844 149.4375 C 140.484375 149.4375 143.546875 152.5 143.546875 156.269531 Z M 88.878906 122.105469 L 88.878906 150.523438 C 86.507812 149.5625 81.390625 149.4375 78.871094 149.4375 C 59.902344 149.4375 42.347656 158.363281 42.347656 183.605469 C 42.347656 213.808594 66.125 217.769531 82.046875 217.769531 C 86.851562 217.769531 96.292969 217.410156 103.523438 216.355469 C 106.894531 215.863281 109.378906 212.988281 109.378906 209.585938 L 109.378906 122.105469 C 109.378906 118.332031 106.320312 115.273438 102.546875 115.273438 L 95.714844 115.273438 C 91.941406 115.273438 88.878906 118.332031 88.878906 122.105469 Z M 81.84375 200.914062 C 72.890625 200.914062 64.210938 198.089844 64.210938 183.605469 C 64.210938 169.117188 72.890625 166.863281 81.84375 166.863281 C 84.027344 166.863281 86.488281 167.273438 88.878906 167.820312 L 88.878906 199.957031 C 86.488281 200.503906 84.027344 200.914062 81.84375 200.914062 Z M 81.84375 200.914062 " fill-opacity="1" fill-rule="nonzero"/></g><g clip-path="url(#cee269d9d3)"><g clip-path="url(#b2d89c0243)"><g clip-path="url(#4f7edf5942)"><path fill="#e16600" d="M 191.117188 249.8125 L 216.613281 186.710938 L 165.617188 186.710938 Z M 191.117188 249.8125 " fill-opacity="1" fill-rule="nonzero"/></g></g></g><g clip-path="url(#863144931a)"><g clip-path="url(#8167251974)"><g clip-path="url(#1e2aa4cf26)"><path fill="#e16600" d="M 220.398438 176.113281 C 220.382812 176.113281 220.371094 176.113281 220.359375 176.113281 L 160.34375 176.113281 C 158.457031 176.113281 156.921875 177.648438 156.921875 179.535156 C 156.921875 181.421875 158.457031 182.960938 160.34375 182.957031 L 219.398438 182.957031 L 221.890625 182.953125 C 223.78125 182.953125 225.316406 181.421875 225.3125 179.535156 C 225.3125 177.644531 223.777344 176.109375 221.890625 176.113281 Z M 220.398438 176.113281 " fill-opacity="1" fill-rule="nonzero"/></g></g></g><g clip-path="url(#ef8f9f2a25)"><g clip-path="url(#445b5b6c02)"><g clip-path="url(#3ec8576273)"><path fill="#e16600" d="M 163.753906 172.363281 L 218.480469 172.363281 L 218.484375 172.359375 L 218.480469 161.832031 L 163.75 161.832031 Z M 163.753906 172.363281 " fill-opacity="1" fill-rule="nonzero"/></g></g></g><g clip-path="url(#825872b63b)"><g clip-path="url(#c76fbed66e)"><g clip-path="url(#97b7b5dc63)"><path fill="#e16600" d="M 191.953125 111.660156 C 192.859375 113.433594 193.246094 115.207031 193.125 117.015625 C 192.757812 122.644531 187.539062 127.097656 182.015625 131.8125 C 173.292969 139.261719 165.042969 146.304688 173.042969 158.078125 L 206.359375 158.078125 C 211.066406 154.101562 213.0625 149.101562 212.292969 143.207031 C 212 140.957031 211.34375 138.964844 210.730469 137.492188 C 205.355469 144.804688 201.710938 147.578125 198.769531 146.710938 C 196.703125 146.101562 195.597656 143.933594 195.484375 140.269531 C 195.417969 138.242188 196.175781 135.507812 197.054688 132.339844 C 198.699219 126.398438 200.75 119.015625 197.71875 114.886719 C 196.558594 113.308594 194.625 112.226562 191.953125 111.660156 Z M 191.953125 111.660156 " fill-opacity="1" fill-rule="nonzero"/></g></g></g><g transform="matrix(1, 0, 0, 1, 287, 120)"><g clip-path="url(#79739944dc)"><g fill="#00471e" fill-opacity="1"><g transform="translate(1.127987, 90.161644)"><g><path d="M 46.859375 2.28125 C 38.828125 2.28125 31.675781 0.578125 25.40625 -2.828125 C 19.144531 -6.242188 14.226562 -11.363281 10.65625 -18.1875 C 7.082031 -25.019531 5.296875 -33.375 5.296875 -43.25 C 5.296875 -52.96875 7.0625 -61.257812 10.59375 -68.125 C 14.132812 -74.988281 19.035156 -80.144531 25.296875 -83.59375 C 31.554688 -87.050781 38.742188 -88.78125 46.859375 -88.78125 C 54.972656 -88.78125 62.160156 -87.015625 68.421875 -83.484375 C 74.691406 -79.953125 79.59375 -74.769531 83.125 -67.9375 C 86.65625 -61.113281 88.421875 -52.882812 88.421875 -43.25 C 88.421875 -33.445312 86.632812 -25.113281 83.0625 -18.25 C 79.488281 -11.382812 74.546875 -6.242188 68.234375 -2.828125 C 61.929688 0.578125 54.804688 2.28125 46.859375 2.28125 Z M 70.359375 -43.25 C 70.359375 -52.882812 68.207031 -60.332031 63.90625 -65.59375 C 59.613281 -70.851562 53.890625 -73.484375 46.734375 -73.484375 C 39.753906 -73.484375 34.113281 -70.851562 29.8125 -65.59375 C 25.519531 -60.332031 23.375 -52.882812 23.375 -43.25 C 23.375 -33.613281 25.5 -26.164062 29.75 -20.90625 C 34.007812 -15.644531 39.710938 -13.015625 46.859375 -13.015625 C 54.003906 -13.015625 59.707031 -15.644531 63.96875 -20.90625 C 68.226562 -26.164062 70.359375 -33.613281 70.359375 -43.25 Z M 70.359375 -43.25 "/></g></g></g><g fill="#00471e" fill-opacity="1"><g transform="translate(94.848245, 90.161644)"><g><path d="M 8.3125 0 L 8.3125 -86.5 L 25.171875 -86.5 L 25.171875 0 Z M 8.3125 0 "/></g></g></g><g fill="#00471e" fill-opacity="1"><g transform="translate(128.336973, 90.161644)"><g><path d="M 8.3125 -71.671875 L 8.3125 -87.34375 L 25.171875 -87.34375 L 25.171875 -71.671875 Z M 8.3125 0 L 8.3125 -64.09375 L 25.171875 -64.09375 L 25.171875 0 Z M 8.3125 0 "/></g></g></g><g fill="#00471e" fill-opacity="1"><g transform="translate(161.825701, 90.161644)"><g><path d="M 60.109375 -55.53125 C 64.523438 -62.363281 70.226562 -65.78125 77.21875 -65.78125 C 81.71875 -65.78125 85.65625 -64.875 89.03125 -63.0625 C 92.40625 -61.257812 94.992188 -58.75 96.796875 -55.53125 C 98.597656 -52.320312 99.5 -48.707031 99.5 -44.6875 L 99.5 0 L 82.640625 0 L 82.640625 -39.390625 C 82.640625 -43.566406 81.796875 -46.640625 80.109375 -48.609375 C 78.421875 -50.578125 76.171875 -51.5625 73.359375 -51.5625 C 69.347656 -51.5625 66.457031 -50.375 64.6875 -48 C 62.925781 -45.632812 62.046875 -42.484375 62.046875 -38.546875 L 62.046875 0 L 45.171875 0 L 45.171875 -39.75 C 45.171875 -44.007812 44.347656 -47.039062 42.703125 -48.84375 C 41.054688 -50.65625 38.507812 -51.5625 35.0625 -51.5625 C 31.601562 -51.5625 28.988281 -50.492188 27.21875 -48.359375 C 25.457031 -46.234375 24.578125 -43.285156 24.578125 -39.515625 L 24.578125 0 L 7.703125 0 L 7.703125 -64.09375 L 23.859375 -64.09375 L 23.859375 -54.6875 L 24.09375 -54.6875 C 27.863281 -62.082031 33.925781 -65.78125 42.28125 -65.78125 C 46.375 -65.78125 49.785156 -65.035156 52.515625 -63.546875 C 55.253906 -62.054688 57.785156 -59.382812 60.109375 -55.53125 Z M 60.109375 -55.53125 "/></g></g></g><g clip-path="url(#eb0029ca60)"><g fill="#00471e" fill-opacity="1"><g transform="translate(268.917359, 90.161644)"><g><path d="M 69.625 -32.765625 C 69.625 -26.097656 68.5625 -20.15625 66.4375 -14.9375 C 64.3125 -9.71875 61.21875 -5.640625 57.15625 -2.703125 C 53.101562 0.222656 48.265625 1.6875 42.640625 1.6875 C 34.210938 1.6875 28.191406 -1.601562 24.578125 -8.1875 L 24.328125 -8.1875 L 24.328125 24.9375 L 7.46875 24.9375 L 7.46875 -64.09375 L 23.609375 -64.09375 L 23.609375 -54.8125 L 23.859375 -54.8125 C 28.109375 -62.125 34.488281 -65.78125 43 -65.78125 C 48.144531 -65.78125 52.742188 -64.429688 56.796875 -61.734375 C 60.859375 -59.046875 64.007812 -55.210938 66.25 -50.234375 C 68.5 -45.253906 69.625 -39.429688 69.625 -32.765625 Z M 38.421875 -12.171875 C 42.847656 -12.171875 46.265625 -14.035156 48.671875 -17.765625 C 51.078125 -21.503906 52.28125 -26.144531 52.28125 -31.6875 C 52.28125 -37.789062 51.054688 -42.566406 48.609375 -46.015625 C 46.160156 -49.472656 42.566406 -51.203125 37.828125 -51.203125 C 33.242188 -51.203125 29.726562 -49.453125 27.28125 -45.953125 C 24.832031 -42.460938 23.609375 -37.34375 23.609375 -30.59375 C 23.609375 -24.8125 24.929688 -20.296875 27.578125 -17.046875 C 30.234375 -13.796875 33.847656 -12.171875 38.421875 -12.171875 Z M 38.421875 -12.171875 "/></g></g></g></g><g fill="#00471e" fill-opacity="1"><g transform="translate(342.52029, 90.161644)"><g><path d="M 8.3125 -71.671875 L 8.3125 -87.34375 L 25.171875 -87.34375 L 25.171875 -71.671875 Z M 8.3125 0 L 8.3125 -64.09375 L 25.171875 -64.09375 L 25.171875 0 Z M 8.3125 0 "/></g></g></g><g fill="#00471e" fill-opacity="1"><g transform="translate(376.009018, 90.161644)"><g><path d="M 64.9375 0 L 59.390625 -17.828125 L 27.46875 -17.828125 L 21.4375 0 L 2.40625 0 L 33.25 -86.5 L 54.09375 -86.5 L 84.5625 0 Z M 54.328125 -32.765625 L 43.609375 -66.984375 L 43.375 -66.984375 L 32.28125 -32.765625 Z M 54.328125 -32.765625 "/></g></g></g><g clip-path="url(#5a7a15ad44)"><g fill="#00471e" fill-opacity="1"><g transform="translate(462.983327, 90.161644)"><g><path d="M 69.625 -32.765625 C 69.625 -26.097656 68.5625 -20.15625 66.4375 -14.9375 C 64.3125 -9.71875 61.21875 -5.640625 57.15625 -2.703125 C 53.101562 0.222656 48.265625 1.6875 42.640625 1.6875 C 34.210938 1.6875 28.191406 -1.601562 24.578125 -8.1875 L 24.328125 -8.1875 L 24.328125 24.9375 L 7.46875 24.9375 L 7.46875 -64.09375 L 23.609375 -64.09375 L 23.609375 -54.8125 L 23.859375 -54.8125 C 28.109375 -62.125 34.488281 -65.78125 43 -65.78125 C 48.144531 -65.78125 52.742188 -64.429688 56.796875 -61.734375 C 60.859375 -59.046875 64.007812 -55.210938 66.25 -50.234375 C 68.5 -45.253906 69.625 -39.429688 69.625 -32.765625 Z M 38.421875 -12.171875 C 42.847656 -12.171875 46.265625 -14.035156 48.671875 -17.765625 C 51.078125 -21.503906 52.28125 -26.144531 52.28125 -31.6875 C 52.28125 -37.789062 51.054688 -42.566406 48.609375 -46.015625 C 46.160156 -49.472656 42.566406 -51.203125 37.828125 -51.203125 C 33.242188 -51.203125 29.726562 -49.453125 27.28125 -45.953125 C 24.832031 -42.460938 23.609375 -37.34375 23.609375 -30.59375 C 23.609375 -24.8125 24.929688 -20.296875 27.578125 -17.046875 C 30.234375 -13.796875 33.847656 -12.171875 38.421875 -12.171875 Z M 38.421875 -12.171875 "/></g></g></g></g><g clip-path="url(#4be5d5c141)"><g fill="#00471e" fill-opacity="1"><g transform="translate(536.586282, 90.161644)"><g><path d="M 69.625 -32.765625 C 69.625 -26.097656 68.5625 -20.15625 66.4375 -14.9375 C 64.3125 -9.71875 61.21875 -5.640625 57.15625 -2.703125 C 53.101562 0.222656 48.265625 1.6875 42.640625 1.6875 C 34.210938 1.6875 28.191406 -1.601562 24.578125 -8.1875 L 24.328125 -8.1875 L 24.328125 24.9375 L 7.46875 24.9375 L 7.46875 -64.09375 L 23.609375 -64.09375 L 23.609375 -54.8125 L 23.859375 -54.8125 C 28.109375 -62.125 34.488281 -65.78125 43 -65.78125 C 48.144531 -65.78125 52.742188 -64.429688 56.796875 -61.734375 C 60.859375 -59.046875 64.007812 -55.210938 66.25 -50.234375 C 68.5 -45.253906 69.625 -39.429688 69.625 -32.765625 Z M 38.421875 -12.171875 C 42.847656 -12.171875 46.265625 -14.035156 48.671875 -17.765625 C 51.078125 -21.503906 52.28125 -26.144531 52.28125 -31.6875 C 52.28125 -37.789062 51.054688 -42.566406 48.609375 -46.015625 C 46.160156 -49.472656 42.566406 -51.203125 37.828125 -51.203125 C 33.242188 -51.203125 29.726562 -49.453125 27.28125 -45.953125 C 24.832031 -42.460938 23.609375 -37.34375 23.609375 -30.59375 C 23.609375 -24.8125 24.929688 -20.296875 27.578125 -17.046875 C 30.234375 -13.796875 33.847656 -12.171875 38.421875 -12.171875 Z M 38.421875 -12.171875 "/></g></g></g></g></g></g></svg>