<svg xmlns="http://www.w3.org/2000/svg" xmlns:xlink="http://www.w3.org/1999/xlink" width="500" zoomAndPan="magnify" viewBox="0 0 375 374.999991" height="500" preserveAspectRatio="xMidYMid meet" version="1.0"><defs><g/><clipPath id="fb5f1e2afb"><path d="M 4 0.121094 L 53 0.121094 L 53 54 L 4 54 Z M 4 0.121094 " clip-rule="nonzero"/></clipPath><clipPath id="5bff16aa04"><path d="M 160 13 L 197 13 L 197 66.359375 L 160 66.359375 Z M 160 13 " clip-rule="nonzero"/></clipPath><clipPath id="dc8e6d947d"><path d="M 272 13 L 309 13 L 309 66.359375 L 272 66.359375 Z M 272 13 " clip-rule="nonzero"/></clipPath><clipPath id="27cbbd46e4"><path d="M 315 13 L 352 13 L 352 66.359375 L 315 66.359375 Z M 315 13 " clip-rule="nonzero"/></clipPath><clipPath id="1e0f8bdb13"><rect x="0" width="355" y="0" height="67"/></clipPath></defs><g transform="matrix(1, 0, 0, 1, 10, 153)"><g clip-path="url(#1e0f8bdb13)"><g clip-path="url(#fb5f1e2afb)"><g fill="#00471e" fill-opacity="1"><g transform="translate(1.132526, 51.808852)"><g><path d="M 27.140625 1.328125 C 22.484375 1.328125 18.34375 0.335938 14.71875 -1.640625 C 11.09375 -3.617188 8.242188 -6.582031 6.171875 -10.53125 C 4.097656 -14.488281 3.0625 -19.328125 3.0625 -25.046875 C 3.0625 -30.671875 4.082031 -35.472656 6.125 -39.453125 C 8.175781 -43.429688 11.015625 -46.421875 14.640625 -48.421875 C 18.273438 -50.421875 22.441406 -51.421875 27.140625 -51.421875 C 31.835938 -51.421875 36 -50.394531 39.625 -48.34375 C 43.25 -46.300781 46.082031 -43.300781 48.125 -39.34375 C 50.175781 -35.394531 51.203125 -30.628906 51.203125 -25.046875 C 51.203125 -19.367188 50.164062 -14.539062 48.09375 -10.5625 C 46.03125 -6.59375 43.171875 -3.617188 39.515625 -1.640625 C 35.867188 0.335938 31.742188 1.328125 27.140625 1.328125 Z M 40.75 -25.046875 C 40.75 -30.628906 39.503906 -34.941406 37.015625 -37.984375 C 34.523438 -41.035156 31.207031 -42.5625 27.0625 -42.5625 C 23.019531 -42.5625 19.753906 -41.035156 17.265625 -37.984375 C 14.773438 -34.941406 13.53125 -30.628906 13.53125 -25.046875 C 13.53125 -19.460938 14.757812 -15.144531 17.21875 -12.09375 C 19.6875 -9.050781 22.992188 -7.53125 27.140625 -7.53125 C 31.273438 -7.53125 34.578125 -9.050781 37.046875 -12.09375 C 39.515625 -15.144531 40.75 -19.460938 40.75 -25.046875 Z M 40.75 -25.046875 "/></g></g></g></g><g fill="#00471e" fill-opacity="1"><g transform="translate(55.408814, 51.808852)"><g><path d="M 4.8125 0 L 4.8125 -50.09375 L 14.578125 -50.09375 L 14.578125 0 Z M 4.8125 0 "/></g></g></g><g fill="#00471e" fill-opacity="1"><g transform="translate(74.803164, 51.808852)"><g><path d="M 4.8125 -41.515625 L 4.8125 -50.578125 L 14.578125 -50.578125 L 14.578125 -41.515625 Z M 4.8125 0 L 4.8125 -37.109375 L 14.578125 -37.109375 L 14.578125 0 Z M 4.8125 0 "/></g></g></g><g fill="#00471e" fill-opacity="1"><g transform="translate(94.197514, 51.808852)"><g><path d="M 34.8125 -32.15625 C 37.375 -36.113281 40.675781 -38.09375 44.71875 -38.09375 C 47.320312 -38.09375 49.597656 -37.566406 51.546875 -36.515625 C 53.503906 -35.472656 55.003906 -34.019531 56.046875 -32.15625 C 57.097656 -30.300781 57.625 -28.210938 57.625 -25.890625 L 57.625 0 L 47.859375 0 L 47.859375 -22.8125 C 47.859375 -25.226562 47.367188 -27.003906 46.390625 -28.140625 C 45.410156 -29.285156 44.109375 -29.859375 42.484375 -29.859375 C 40.160156 -29.859375 38.484375 -29.171875 37.453125 -27.796875 C 36.429688 -26.429688 35.921875 -24.609375 35.921875 -22.328125 L 35.921875 0 L 26.15625 0 L 26.15625 -23.015625 C 26.15625 -25.484375 25.675781 -27.238281 24.71875 -28.28125 C 23.769531 -29.332031 22.296875 -29.859375 20.296875 -29.859375 C 18.296875 -29.859375 16.785156 -29.238281 15.765625 -28 C 14.742188 -26.769531 14.234375 -25.066406 14.234375 -22.890625 L 14.234375 0 L 4.46875 0 L 4.46875 -37.109375 L 13.8125 -37.109375 L 13.8125 -31.671875 L 13.953125 -31.671875 C 16.140625 -35.953125 19.648438 -38.09375 24.484375 -38.09375 C 26.859375 -38.09375 28.835938 -37.660156 30.421875 -36.796875 C 32.003906 -35.941406 33.46875 -34.394531 34.8125 -32.15625 Z M 34.8125 -32.15625 "/></g></g></g><g clip-path="url(#5bff16aa04)"><g fill="#00471e" fill-opacity="1"><g transform="translate(156.217589, 51.808852)"><g><path d="M 40.328125 -18.96875 C 40.328125 -15.113281 39.707031 -11.671875 38.46875 -8.640625 C 37.238281 -5.617188 35.445312 -3.257812 33.09375 -1.5625 C 30.75 0.132812 27.953125 0.984375 24.703125 0.984375 C 19.816406 0.984375 16.328125 -0.925781 14.234375 -4.75 L 14.09375 -4.75 L 14.09375 14.4375 L 4.328125 14.4375 L 4.328125 -37.109375 L 13.671875 -37.109375 L 13.671875 -31.75 L 13.8125 -31.75 C 16.28125 -35.976562 19.976562 -38.09375 24.90625 -38.09375 C 27.882812 -38.09375 30.546875 -37.3125 32.890625 -35.75 C 35.242188 -34.195312 37.070312 -31.976562 38.375 -29.09375 C 39.675781 -26.207031 40.328125 -22.832031 40.328125 -18.96875 Z M 22.25 -7.046875 C 24.8125 -7.046875 26.789062 -8.125 28.1875 -10.28125 C 29.582031 -12.445312 30.28125 -15.132812 30.28125 -18.34375 C 30.28125 -21.882812 29.566406 -24.65625 28.140625 -26.65625 C 26.722656 -28.65625 24.644531 -29.65625 21.90625 -29.65625 C 19.257812 -29.65625 17.222656 -28.640625 15.796875 -26.609375 C 14.378906 -24.585938 13.671875 -21.625 13.671875 -17.71875 C 13.671875 -14.375 14.4375 -11.757812 15.96875 -9.875 C 17.507812 -7.988281 19.601562 -7.046875 22.25 -7.046875 Z M 22.25 -7.046875 "/></g></g></g></g><g fill="#00471e" fill-opacity="1"><g transform="translate(198.843314, 51.808852)"><g><path d="M 4.8125 -41.515625 L 4.8125 -50.578125 L 14.578125 -50.578125 L 14.578125 -41.515625 Z M 4.8125 0 L 4.8125 -37.109375 L 14.578125 -37.109375 L 14.578125 0 Z M 4.8125 0 "/></g></g></g><g fill="#00471e" fill-opacity="1"><g transform="translate(218.237676, 51.808852)"><g><path d="M 37.609375 0 L 34.390625 -10.328125 L 15.90625 -10.328125 L 12.421875 0 L 1.390625 0 L 19.25 -50.09375 L 31.328125 -50.09375 L 48.96875 0 Z M 31.46875 -18.96875 L 25.25 -38.796875 L 25.109375 -38.796875 L 18.703125 -18.96875 Z M 31.46875 -18.96875 "/></g></g></g><g clip-path="url(#dc8e6d947d)"><g fill="#00471e" fill-opacity="1"><g transform="translate(268.607176, 51.808852)"><g><path d="M 40.328125 -18.96875 C 40.328125 -15.113281 39.707031 -11.671875 38.46875 -8.640625 C 37.238281 -5.617188 35.445312 -3.257812 33.09375 -1.5625 C 30.75 0.132812 27.953125 0.984375 24.703125 0.984375 C 19.816406 0.984375 16.328125 -0.925781 14.234375 -4.75 L 14.09375 -4.75 L 14.09375 14.4375 L 4.328125 14.4375 L 4.328125 -37.109375 L 13.671875 -37.109375 L 13.671875 -31.75 L 13.8125 -31.75 C 16.28125 -35.976562 19.976562 -38.09375 24.90625 -38.09375 C 27.882812 -38.09375 30.546875 -37.3125 32.890625 -35.75 C 35.242188 -34.195312 37.070312 -31.976562 38.375 -29.09375 C 39.675781 -26.207031 40.328125 -22.832031 40.328125 -18.96875 Z M 22.25 -7.046875 C 24.8125 -7.046875 26.789062 -8.125 28.1875 -10.28125 C 29.582031 -12.445312 30.28125 -15.132812 30.28125 -18.34375 C 30.28125 -21.882812 29.566406 -24.65625 28.140625 -26.65625 C 26.722656 -28.65625 24.644531 -29.65625 21.90625 -29.65625 C 19.257812 -29.65625 17.222656 -28.640625 15.796875 -26.609375 C 14.378906 -24.585938 13.671875 -21.625 13.671875 -17.71875 C 13.671875 -14.375 14.4375 -11.757812 15.96875 -9.875 C 17.507812 -7.988281 19.601562 -7.046875 22.25 -7.046875 Z M 22.25 -7.046875 "/></g></g></g></g><g clip-path="url(#27cbbd46e4)"><g fill="#00471e" fill-opacity="1"><g transform="translate(311.232901, 51.808852)"><g><path d="M 40.328125 -18.96875 C 40.328125 -15.113281 39.707031 -11.671875 38.46875 -8.640625 C 37.238281 -5.617188 35.445312 -3.257812 33.09375 -1.5625 C 30.75 0.132812 27.953125 0.984375 24.703125 0.984375 C 19.816406 0.984375 16.328125 -0.925781 14.234375 -4.75 L 14.09375 -4.75 L 14.09375 14.4375 L 4.328125 14.4375 L 4.328125 -37.109375 L 13.671875 -37.109375 L 13.671875 -31.75 L 13.8125 -31.75 C 16.28125 -35.976562 19.976562 -38.09375 24.90625 -38.09375 C 27.882812 -38.09375 30.546875 -37.3125 32.890625 -35.75 C 35.242188 -34.195312 37.070312 -31.976562 38.375 -29.09375 C 39.675781 -26.207031 40.328125 -22.832031 40.328125 -18.96875 Z M 22.25 -7.046875 C 24.8125 -7.046875 26.789062 -8.125 28.1875 -10.28125 C 29.582031 -12.445312 30.28125 -15.132812 30.28125 -18.34375 C 30.28125 -21.882812 29.566406 -24.65625 28.140625 -26.65625 C 26.722656 -28.65625 24.644531 -29.65625 21.90625 -29.65625 C 19.257812 -29.65625 17.222656 -28.640625 15.796875 -26.609375 C 14.378906 -24.585938 13.671875 -21.625 13.671875 -17.71875 C 13.671875 -14.375 14.4375 -11.757812 15.96875 -9.875 C 17.507812 -7.988281 19.601562 -7.046875 22.25 -7.046875 Z M 22.25 -7.046875 "/></g></g></g></g></g></g></svg>