<svg xmlns="http://www.w3.org/2000/svg" xmlns:xlink="http://www.w3.org/1999/xlink" width="500" zoomAndPan="magnify" viewBox="0 0 375 374.999991" height="500" preserveAspectRatio="xMidYMid meet" version="1.0"><defs><clipPath id="f92712e265"><path d="M 187.5 0 C 83.945312 0 0 83.945312 0 187.5 C 0 291.054688 83.945312 375 187.5 375 C 291.054688 375 375 291.054688 375 187.5 C 375 83.945312 291.054688 0 187.5 0 Z M 187.5 0 " clip-rule="nonzero"/></clipPath><clipPath id="46c40d252e"><path d="M 0 0 L 375 0 L 375 375 L 0 375 Z M 0 0 " clip-rule="nonzero"/></clipPath><clipPath id="909f0a52a1"><path d="M 187.5 0 C 83.945312 0 0 83.945312 0 187.5 C 0 291.054688 83.945312 375 187.5 375 C 291.054688 375 375 291.054688 375 187.5 C 375 83.945312 291.054688 0 187.5 0 Z M 187.5 0 " clip-rule="nonzero"/></clipPath><clipPath id="a515a3515b"><rect x="0" width="375" y="0" height="375"/></clipPath><clipPath id="d6f429c3e0"><path d="M 2 7.414062 L 141 7.414062 L 141 184 L 2 184 Z M 2 7.414062 " clip-rule="nonzero"/></clipPath><clipPath id="1b896b3cbe"><path d="M 170 104 L 240 104 L 240 190.71875 L 170 190.71875 Z M 170 104 " clip-rule="nonzero"/></clipPath><clipPath id="ee024fc959"><path d="M 111.589844 97.128906 L 208.417969 0.300781 L 302.117188 94.003906 L 205.292969 190.832031 Z M 111.589844 97.128906 " clip-rule="nonzero"/></clipPath><clipPath id="ef35118a3d"><path d="M 111.589844 97.128906 L 208.417969 0.300781 L 302.117188 94.003906 L 205.292969 190.832031 Z M 111.589844 97.128906 " clip-rule="nonzero"/></clipPath><clipPath id="213c1d5d6d"><path d="M 158 90 L 252 90 L 252 100 L 158 100 Z M 158 90 " clip-rule="nonzero"/></clipPath><clipPath id="7f3f99b0eb"><path d="M 111.589844 97.128906 L 208.417969 0.300781 L 302.117188 94.003906 L 205.292969 190.832031 Z M 111.589844 97.128906 " clip-rule="nonzero"/></clipPath><clipPath id="ac9816faa4"><path d="M 111.589844 97.128906 L 208.417969 0.300781 L 302.117188 94.003906 L 205.292969 190.832031 Z M 111.589844 97.128906 " clip-rule="nonzero"/></clipPath><clipPath id="01a36ef7de"><path d="M 167 70 L 243 70 L 243 86 L 167 86 Z M 167 70 " clip-rule="nonzero"/></clipPath><clipPath id="f43868d5b6"><path d="M 111.589844 97.128906 L 208.417969 0.300781 L 302.117188 94.003906 L 205.292969 190.832031 Z M 111.589844 97.128906 " clip-rule="nonzero"/></clipPath><clipPath id="a3ea105e15"><path d="M 111.589844 97.128906 L 208.417969 0.300781 L 302.117188 94.003906 L 205.292969 190.832031 Z M 111.589844 97.128906 " clip-rule="nonzero"/></clipPath><clipPath id="f7ffc42611"><path d="M 176 2 L 235 2 L 235 66 L 176 66 Z M 176 2 " clip-rule="nonzero"/></clipPath><clipPath id="c8cc2fe3a7"><path d="M 111.589844 97.128906 L 208.417969 0.300781 L 302.117188 94.003906 L 205.292969 190.832031 Z M 111.589844 97.128906 " clip-rule="nonzero"/></clipPath><clipPath id="afc6cfe63e"><path d="M 111.589844 97.128906 L 208.417969 0.300781 L 302.117188 94.003906 L 205.292969 190.832031 Z M 111.589844 97.128906 " clip-rule="nonzero"/></clipPath><clipPath id="1b22a179f7"><rect x="0" width="302" y="0" height="191"/></clipPath></defs><g clip-path="url(#f92712e265)"><g transform="matrix(1, 0, 0, 1, 0, 0)"><g clip-path="url(#a515a3515b)"><g clip-path="url(#46c40d252e)"><g clip-path="url(#909f0a52a1)"><rect x="-82.5" width="540" fill="#00471e" height="539.999987" y="-82.499998" fill-opacity="1"/></g></g></g></g></g><g transform="matrix(1, 0, 0, 1, 55, 92)"><g clip-path="url(#1b22a179f7)"><g clip-path="url(#d6f429c3e0)"><path fill="#ffffff" d="M 131.054688 35.3125 L 121.753906 35.3125 C 116.621094 35.3125 112.457031 31.144531 112.457031 26.011719 L 112.457031 16.710938 C 112.457031 11.578125 116.621094 7.414062 121.753906 7.414062 L 131.054688 7.414062 C 136.1875 7.414062 140.355469 11.578125 140.355469 16.710938 L 140.355469 26.011719 C 140.355469 31.144531 136.1875 35.3125 131.054688 35.3125 Z M 140.355469 134.832031 C 140.355469 143.683594 138.375 171.871094 114.863281 182.585938 C 112.539062 183.644531 109.824219 183.46875 107.5 182.417969 L 93.167969 175.925781 C 89.738281 174.375 89.570312 169.722656 92.742188 167.707031 C 106.320312 159.085938 112.457031 146.753906 112.457031 134.832031 L 112.457031 63.207031 C 112.457031 58.074219 116.621094 53.910156 121.753906 53.910156 L 131.054688 53.910156 C 136.1875 53.910156 140.355469 58.074219 140.355469 63.207031 Z M 65.960938 16.710938 L 65.960938 55.386719 C 62.734375 54.078125 55.769531 53.910156 52.335938 53.910156 C 26.519531 53.910156 2.632812 66.054688 2.632812 100.40625 C 2.632812 141.507812 34.992188 146.902344 56.660156 146.902344 C 63.199219 146.902344 76.050781 146.410156 85.886719 144.976562 C 90.472656 144.308594 93.859375 140.394531 93.859375 135.761719 L 93.859375 16.710938 C 93.859375 11.578125 89.691406 7.414062 84.558594 7.414062 L 75.257812 7.414062 C 70.125 7.414062 65.960938 11.578125 65.960938 16.710938 Z M 56.382812 123.960938 C 44.199219 123.960938 32.390625 120.121094 32.390625 100.40625 C 32.390625 80.691406 44.199219 77.621094 56.382812 77.621094 C 59.355469 77.621094 62.703125 78.179688 65.960938 78.925781 L 65.960938 122.660156 C 62.703125 123.402344 59.355469 123.960938 56.382812 123.960938 Z M 56.382812 123.960938 " fill-opacity="1" fill-rule="nonzero"/></g><g clip-path="url(#1b896b3cbe)"><g clip-path="url(#ee024fc959)"><g clip-path="url(#ef35118a3d)"><path fill="#e16600" d="M 205.085938 190.507812 L 239.785156 104.632812 L 170.382812 104.632812 Z M 205.085938 190.507812 " fill-opacity="1" fill-rule="nonzero"/></g></g></g><g clip-path="url(#213c1d5d6d)"><g clip-path="url(#7f3f99b0eb)"><g clip-path="url(#ac9816faa4)"><path fill="#e16600" d="M 244.933594 90.210938 C 244.914062 90.210938 244.898438 90.210938 244.878906 90.210938 L 163.210938 90.210938 C 160.640625 90.210938 158.550781 92.300781 158.554688 94.867188 C 158.550781 97.433594 160.640625 99.527344 163.210938 99.523438 L 243.574219 99.523438 L 246.96875 99.519531 C 249.535156 99.519531 251.625 97.433594 251.621094 94.863281 C 251.621094 92.292969 249.535156 90.207031 246.96875 90.207031 Z M 244.933594 90.210938 " fill-opacity="1" fill-rule="nonzero"/></g></g></g><g clip-path="url(#01a36ef7de)"><g clip-path="url(#f43868d5b6)"><g clip-path="url(#a3ea105e15)"><path fill="#e16600" d="M 167.847656 85.105469 L 242.324219 85.105469 L 242.328125 85.101562 L 242.324219 70.777344 L 167.84375 70.777344 Z M 167.847656 85.105469 " fill-opacity="1" fill-rule="nonzero"/></g></g></g><g clip-path="url(#f7ffc42611)"><g clip-path="url(#c8cc2fe3a7)"><g clip-path="url(#afc6cfe63e)"><path fill="#e16600" d="M 206.222656 2.5 C 207.457031 4.914062 207.980469 7.328125 207.820312 9.789062 C 207.320312 17.445312 200.214844 23.507812 192.699219 29.925781 C 180.828125 40.058594 169.601562 49.644531 180.488281 65.667969 L 225.828125 65.667969 C 232.234375 60.257812 234.949219 53.453125 233.90625 45.429688 C 233.503906 42.367188 232.609375 39.65625 231.777344 37.652344 C 224.460938 47.601562 219.503906 51.378906 215.5 50.195312 C 212.6875 49.367188 211.183594 46.417969 211.027344 41.429688 C 210.9375 38.675781 211.96875 34.949219 213.167969 30.636719 C 215.40625 22.558594 218.195312 12.507812 214.070312 6.890625 C 212.492188 4.742188 209.863281 3.269531 206.222656 2.5 Z M 206.222656 2.5 " fill-opacity="1" fill-rule="nonzero"/></g></g></g></g></g></svg>