<svg xmlns="http://www.w3.org/2000/svg" xmlns:xlink="http://www.w3.org/1999/xlink" width="500" zoomAndPan="magnify" viewBox="0 0 375 374.999991" height="500" preserveAspectRatio="xMidYMid meet" version="1.0"><defs><g/><clipPath id="8d1bec7ff9"><path d="M 0.835938 0.109375 L 202.164062 0.109375 L 202.164062 201.4375 L 0.835938 201.4375 Z M 0.835938 0.109375 " clip-rule="nonzero"/></clipPath><clipPath id="08ea1f95fc"><path d="M 101.5 0.109375 C 45.90625 0.109375 0.835938 45.179688 0.835938 100.773438 C 0.835938 156.371094 45.90625 201.4375 101.5 201.4375 C 157.09375 201.4375 202.164062 156.371094 202.164062 100.773438 C 202.164062 45.179688 157.09375 0.109375 101.5 0.109375 Z M 101.5 0.109375 " clip-rule="nonzero"/></clipPath><clipPath id="f7b8e3e0a3"><path d="M 0.835938 0.109375 L 202.164062 0.109375 L 202.164062 201.4375 L 0.835938 201.4375 Z M 0.835938 0.109375 " clip-rule="nonzero"/></clipPath><clipPath id="2275f0665c"><path d="M 101.5 0.109375 C 45.90625 0.109375 0.835938 45.179688 0.835938 100.773438 C 0.835938 156.371094 45.90625 201.4375 101.5 201.4375 C 157.09375 201.4375 202.164062 156.371094 202.164062 100.773438 C 202.164062 45.179688 157.09375 0.109375 101.5 0.109375 Z M 101.5 0.109375 " clip-rule="nonzero"/></clipPath><clipPath id="88ca37f582"><rect x="0" width="203" y="0" height="202"/></clipPath><clipPath id="f7d40b180f"><path d="M 31.300781 53.484375 L 106 53.484375 L 106 148 L 31.300781 148 Z M 31.300781 53.484375 " clip-rule="nonzero"/></clipPath><clipPath id="bddd174980"><path d="M 121 105 L 160 105 L 160 152 L 121 152 Z M 121 105 " clip-rule="nonzero"/></clipPath><clipPath id="1ec800ae88"><path d="M 90.273438 101.648438 L 142.089844 49.832031 L 192.203125 99.941406 L 140.382812 151.761719 Z M 90.273438 101.648438 " clip-rule="nonzero"/></clipPath><clipPath id="9abb53c9fc"><path d="M 90.273438 101.648438 L 142.089844 49.832031 L 192.203125 99.941406 L 140.382812 151.761719 Z M 90.273438 101.648438 " clip-rule="nonzero"/></clipPath><clipPath id="1e715ac305"><path d="M 115 97 L 166 97 L 166 103 L 115 103 Z M 115 97 " clip-rule="nonzero"/></clipPath><clipPath id="186d73ee83"><path d="M 90.273438 101.648438 L 142.089844 49.832031 L 192.203125 99.941406 L 140.382812 151.761719 Z M 90.273438 101.648438 " clip-rule="nonzero"/></clipPath><clipPath id="c61c388130"><path d="M 90.273438 101.648438 L 142.089844 49.832031 L 192.203125 99.941406 L 140.382812 151.761719 Z M 90.273438 101.648438 " clip-rule="nonzero"/></clipPath><clipPath id="d2290991a6"><path d="M 120 87 L 161 87 L 161 96 L 120 96 Z M 120 87 " clip-rule="nonzero"/></clipPath><clipPath id="8548dc47f2"><path d="M 90.273438 101.648438 L 142.089844 49.832031 L 192.203125 99.941406 L 140.382812 151.761719 Z M 90.273438 101.648438 " clip-rule="nonzero"/></clipPath><clipPath id="f8e7e53ab8"><path d="M 90.273438 101.648438 L 142.089844 49.832031 L 192.203125 99.941406 L 140.382812 151.761719 Z M 90.273438 101.648438 " clip-rule="nonzero"/></clipPath><clipPath id="deaab59e64"><path d="M 124 50 L 157 50 L 157 85 L 124 85 Z M 124 50 " clip-rule="nonzero"/></clipPath><clipPath id="a0e008ef99"><path d="M 90.273438 101.648438 L 142.089844 49.832031 L 192.203125 99.941406 L 140.382812 151.761719 Z M 90.273438 101.648438 " clip-rule="nonzero"/></clipPath><clipPath id="a0a5636b5c"><path d="M 90.273438 101.648438 L 142.089844 49.832031 L 192.203125 99.941406 L 140.382812 151.761719 Z M 90.273438 101.648438 " clip-rule="nonzero"/></clipPath><clipPath id="f0328aa027"><rect x="0" width="203" y="0" height="202"/></clipPath></defs><g transform="matrix(1, 0, 0, 1, 86, 125)"><g clip-path="url(#f0328aa027)"><g clip-path="url(#8d1bec7ff9)"><g clip-path="url(#08ea1f95fc)"><g><g clip-path="url(#88ca37f582)"><g clip-path="url(#f7b8e3e0a3)"><g clip-path="url(#2275f0665c)"><path fill="#00471e" d="M 0.835938 0.109375 L 202.164062 0.109375 L 202.164062 201.4375 L 0.835938 201.4375 Z M 0.835938 0.109375 " fill-opacity="1" fill-rule="nonzero"/></g></g></g></g></g></g><g clip-path="url(#f7d40b180f)"><path fill="#ffffff" d="M 100.722656 68.460938 L 95.730469 68.460938 C 92.976562 68.460938 90.738281 66.222656 90.738281 63.46875 L 90.738281 58.476562 C 90.738281 55.71875 92.976562 53.484375 95.730469 53.484375 L 100.722656 53.484375 C 103.480469 53.484375 105.714844 55.71875 105.714844 58.476562 L 105.714844 63.46875 C 105.714844 66.222656 103.480469 68.460938 100.722656 68.460938 Z M 105.714844 121.890625 C 105.714844 126.640625 104.652344 141.773438 92.03125 147.527344 C 90.785156 148.09375 89.324219 148 88.078125 147.4375 L 80.382812 143.949219 C 78.542969 143.117188 78.453125 140.621094 80.15625 139.539062 C 87.445312 134.910156 90.738281 128.289062 90.738281 121.890625 L 90.738281 83.4375 C 90.738281 80.679688 92.976562 78.445312 95.730469 78.445312 L 100.722656 78.445312 C 103.480469 78.445312 105.714844 80.679688 105.714844 83.4375 Z M 65.777344 58.476562 L 65.777344 79.238281 C 64.042969 78.535156 60.304688 78.445312 58.460938 78.445312 C 44.601562 78.445312 31.777344 84.964844 31.777344 103.40625 C 31.777344 125.472656 49.152344 128.371094 60.785156 128.371094 C 64.292969 128.371094 71.191406 128.105469 76.476562 127.335938 C 78.9375 126.976562 80.753906 124.875 80.753906 122.386719 L 80.753906 58.476562 C 80.753906 55.71875 78.515625 53.484375 75.761719 53.484375 L 70.769531 53.484375 C 68.011719 53.484375 65.777344 55.71875 65.777344 58.476562 Z M 60.632812 116.054688 C 54.09375 116.054688 47.753906 113.992188 47.753906 103.40625 C 47.753906 92.824219 54.09375 91.175781 60.632812 91.175781 C 62.230469 91.175781 64.027344 91.476562 65.777344 91.875 L 65.777344 115.355469 C 64.027344 115.753906 62.230469 116.054688 60.632812 116.054688 Z M 60.632812 116.054688 " fill-opacity="1" fill-rule="nonzero"/></g><g clip-path="url(#bddd174980)"><g clip-path="url(#1ec800ae88)"><g clip-path="url(#9abb53c9fc)"><path fill="#e16600" d="M 140.46875 151.785156 L 159.101562 105.679688 L 121.835938 105.679688 Z M 140.46875 151.785156 " fill-opacity="1" fill-rule="nonzero"/></g></g></g><g clip-path="url(#1e715ac305)"><g clip-path="url(#186d73ee83)"><g clip-path="url(#c61c388130)"><path fill="#e16600" d="M 161.863281 97.9375 C 161.855469 97.9375 161.847656 97.9375 161.835938 97.9375 L 117.984375 97.9375 C 116.605469 97.9375 115.484375 99.058594 115.484375 100.4375 C 115.484375 101.816406 116.605469 102.9375 117.984375 102.9375 L 162.957031 102.9375 C 164.335938 102.9375 165.457031 101.816406 165.457031 100.4375 C 165.457031 99.054688 164.335938 97.933594 162.957031 97.9375 Z M 161.863281 97.9375 " fill-opacity="1" fill-rule="nonzero"/></g></g></g><g clip-path="url(#d2290991a6)"><g clip-path="url(#8548dc47f2)"><g clip-path="url(#f8e7e53ab8)"><path fill="#e16600" d="M 120.476562 95.195312 L 160.464844 95.195312 L 160.464844 87.503906 L 120.476562 87.503906 Z M 120.476562 95.195312 " fill-opacity="1" fill-rule="nonzero"/></g></g></g><g clip-path="url(#deaab59e64)"><g clip-path="url(#a0e008ef99)"><g clip-path="url(#a0a5636b5c)"><path fill="#e16600" d="M 141.082031 50.84375 C 141.742188 52.140625 142.023438 53.433594 141.9375 54.757812 C 141.667969 58.867188 137.855469 62.125 133.820312 65.570312 C 127.445312 71.011719 121.417969 76.15625 127.265625 84.761719 L 151.605469 84.761719 C 155.046875 81.855469 156.503906 78.203125 155.941406 73.894531 C 155.730469 72.25 155.246094 70.792969 154.800781 69.71875 C 150.871094 75.058594 148.210938 77.089844 146.0625 76.453125 C 144.550781 76.007812 143.742188 74.425781 143.660156 71.746094 C 143.613281 70.265625 144.167969 68.265625 144.808594 65.953125 C 146.011719 61.613281 147.507812 56.21875 145.292969 53.203125 C 144.445312 52.046875 143.035156 51.257812 141.082031 50.84375 Z M 141.082031 50.84375 " fill-opacity="1" fill-rule="nonzero"/></g></g></g></g></g><g fill="#00471e" fill-opacity="1"><g transform="translate(23.195504, 102.360612)"><g><path d="M 25.28125 1.234375 C 20.945312 1.234375 17.085938 0.3125 13.703125 -1.53125 C 10.328125 -3.375 7.675781 -6.132812 5.75 -9.8125 C 3.820312 -13.5 2.859375 -18.003906 2.859375 -23.328125 C 2.859375 -28.578125 3.8125 -33.050781 5.71875 -36.75 C 7.625 -40.457031 10.265625 -43.242188 13.640625 -45.109375 C 17.023438 -46.972656 20.90625 -47.90625 25.28125 -47.90625 C 29.65625 -47.90625 33.53125 -46.953125 36.90625 -45.046875 C 40.289062 -43.140625 42.9375 -40.34375 44.84375 -36.65625 C 46.75 -32.976562 47.703125 -28.535156 47.703125 -23.328125 C 47.703125 -18.046875 46.738281 -13.550781 44.8125 -9.84375 C 42.882812 -6.144531 40.21875 -3.375 36.8125 -1.53125 C 33.414062 0.3125 29.570312 1.234375 25.28125 1.234375 Z M 37.953125 -23.328125 C 37.953125 -28.535156 36.789062 -32.554688 34.46875 -35.390625 C 32.15625 -38.234375 29.070312 -39.65625 25.21875 -39.65625 C 21.445312 -39.65625 18.398438 -38.234375 16.078125 -35.390625 C 13.765625 -32.554688 12.609375 -28.535156 12.609375 -23.328125 C 12.609375 -18.128906 13.753906 -14.109375 16.046875 -11.265625 C 18.347656 -8.429688 21.425781 -7.015625 25.28125 -7.015625 C 29.132812 -7.015625 32.207031 -8.429688 34.5 -11.265625 C 36.800781 -14.109375 37.953125 -18.128906 37.953125 -23.328125 Z M 37.953125 -23.328125 "/></g></g></g><g fill="#00471e" fill-opacity="1"><g transform="translate(73.75947, 102.360612)"><g><path d="M 4.484375 0 L 4.484375 -46.671875 L 13.578125 -46.671875 L 13.578125 0 Z M 4.484375 0 "/></g></g></g><g fill="#00471e" fill-opacity="1"><g transform="translate(91.827309, 102.360612)"><g><path d="M 4.484375 -38.671875 L 4.484375 -47.125 L 13.578125 -47.125 L 13.578125 -38.671875 Z M 4.484375 0 L 4.484375 -34.578125 L 13.578125 -34.578125 L 13.578125 0 Z M 4.484375 0 "/></g></g></g><g fill="#00471e" fill-opacity="1"><g transform="translate(109.895148, 102.360612)"><g><path d="M 32.4375 -29.96875 C 34.820312 -33.644531 37.898438 -35.484375 41.671875 -35.484375 C 44.097656 -35.484375 46.21875 -34.992188 48.03125 -34.015625 C 49.851562 -33.046875 51.25 -31.691406 52.21875 -29.953125 C 53.195312 -28.222656 53.6875 -26.273438 53.6875 -24.109375 L 53.6875 0 L 44.59375 0 L 44.59375 -21.25 C 44.59375 -23.507812 44.132812 -25.164062 43.21875 -26.21875 C 42.3125 -27.28125 41.097656 -27.8125 39.578125 -27.8125 C 37.410156 -27.8125 35.847656 -27.171875 34.890625 -25.890625 C 33.941406 -24.617188 33.46875 -22.921875 33.46875 -20.796875 L 33.46875 0 L 24.375 0 L 24.375 -21.453125 C 24.375 -23.742188 23.925781 -25.375 23.03125 -26.34375 C 22.144531 -27.320312 20.773438 -27.8125 18.921875 -27.8125 C 17.054688 -27.8125 15.644531 -27.238281 14.6875 -26.09375 C 13.738281 -24.945312 13.265625 -23.351562 13.265625 -21.3125 L 13.265625 0 L 4.15625 0 L 4.15625 -34.578125 L 12.875 -34.578125 L 12.875 -29.515625 L 13 -29.515625 C 15.039062 -33.492188 18.3125 -35.484375 22.8125 -35.484375 C 25.019531 -35.484375 26.859375 -35.082031 28.328125 -34.28125 C 29.804688 -33.476562 31.175781 -32.039062 32.4375 -29.96875 Z M 32.4375 -29.96875 "/></g></g></g><g fill="#00471e" fill-opacity="1"><g transform="translate(167.673252, 102.360612)"><g><path d="M 37.5625 -17.6875 C 37.5625 -14.082031 36.988281 -10.867188 35.84375 -8.046875 C 34.695312 -5.234375 33.03125 -3.035156 30.84375 -1.453125 C 28.65625 0.117188 26.046875 0.90625 23.015625 0.90625 C 18.460938 0.90625 15.210938 -0.867188 13.265625 -4.421875 L 13.125 -4.421875 L 13.125 13.453125 L 4.03125 13.453125 L 4.03125 -34.578125 L 12.734375 -34.578125 L 12.734375 -29.578125 L 12.875 -29.578125 C 15.164062 -33.515625 18.609375 -35.484375 23.203125 -35.484375 C 25.972656 -35.484375 28.453125 -34.757812 30.640625 -33.3125 C 32.835938 -31.863281 34.539062 -29.796875 35.75 -27.109375 C 36.957031 -24.421875 37.5625 -21.28125 37.5625 -17.6875 Z M 20.734375 -6.5625 C 23.117188 -6.5625 24.957031 -7.566406 26.25 -9.578125 C 27.550781 -11.597656 28.203125 -14.101562 28.203125 -17.09375 C 28.203125 -20.382812 27.539062 -22.960938 26.21875 -24.828125 C 24.90625 -26.691406 22.96875 -27.625 20.40625 -27.625 C 17.9375 -27.625 16.039062 -26.679688 14.71875 -24.796875 C 13.394531 -22.910156 12.734375 -20.148438 12.734375 -16.515625 C 12.734375 -13.390625 13.445312 -10.945312 14.875 -9.1875 C 16.3125 -7.4375 18.265625 -6.5625 20.734375 -6.5625 Z M 20.734375 -6.5625 "/></g></g></g><g fill="#00471e" fill-opacity="1"><g transform="translate(207.383515, 102.360612)"><g><path d="M 4.484375 -38.671875 L 4.484375 -47.125 L 13.578125 -47.125 L 13.578125 -38.671875 Z M 4.484375 0 L 4.484375 -34.578125 L 13.578125 -34.578125 L 13.578125 0 Z M 4.484375 0 "/></g></g></g><g fill="#00471e" fill-opacity="1"><g transform="translate(225.451365, 102.360612)"><g><path d="M 35.03125 0 L 32.046875 -9.625 L 14.8125 -9.625 L 11.5625 0 L 1.296875 0 L 17.9375 -46.671875 L 29.1875 -46.671875 L 45.625 0 Z M 29.3125 -17.6875 L 23.53125 -36.140625 L 23.40625 -36.140625 L 17.421875 -17.6875 Z M 29.3125 -17.6875 "/></g></g></g><g fill="#00471e" fill-opacity="1"><g transform="translate(272.375755, 102.360612)"><g><path d="M 37.5625 -17.6875 C 37.5625 -14.082031 36.988281 -10.867188 35.84375 -8.046875 C 34.695312 -5.234375 33.03125 -3.035156 30.84375 -1.453125 C 28.65625 0.117188 26.046875 0.90625 23.015625 0.90625 C 18.460938 0.90625 15.210938 -0.867188 13.265625 -4.421875 L 13.125 -4.421875 L 13.125 13.453125 L 4.03125 13.453125 L 4.03125 -34.578125 L 12.734375 -34.578125 L 12.734375 -29.578125 L 12.875 -29.578125 C 15.164062 -33.515625 18.609375 -35.484375 23.203125 -35.484375 C 25.972656 -35.484375 28.453125 -34.757812 30.640625 -33.3125 C 32.835938 -31.863281 34.539062 -29.796875 35.75 -27.109375 C 36.957031 -24.421875 37.5625 -21.28125 37.5625 -17.6875 Z M 20.734375 -6.5625 C 23.117188 -6.5625 24.957031 -7.566406 26.25 -9.578125 C 27.550781 -11.597656 28.203125 -14.101562 28.203125 -17.09375 C 28.203125 -20.382812 27.539062 -22.960938 26.21875 -24.828125 C 24.90625 -26.691406 22.96875 -27.625 20.40625 -27.625 C 17.9375 -27.625 16.039062 -26.679688 14.71875 -24.796875 C 13.394531 -22.910156 12.734375 -20.148438 12.734375 -16.515625 C 12.734375 -13.390625 13.445312 -10.945312 14.875 -9.1875 C 16.3125 -7.4375 18.265625 -6.5625 20.734375 -6.5625 Z M 20.734375 -6.5625 "/></g></g></g><g fill="#00471e" fill-opacity="1"><g transform="translate(312.086018, 102.360612)"><g><path d="M 37.5625 -17.6875 C 37.5625 -14.082031 36.988281 -10.867188 35.84375 -8.046875 C 34.695312 -5.234375 33.03125 -3.035156 30.84375 -1.453125 C 28.65625 0.117188 26.046875 0.90625 23.015625 0.90625 C 18.460938 0.90625 15.210938 -0.867188 13.265625 -4.421875 L 13.125 -4.421875 L 13.125 13.453125 L 4.03125 13.453125 L 4.03125 -34.578125 L 12.734375 -34.578125 L 12.734375 -29.578125 L 12.875 -29.578125 C 15.164062 -33.515625 18.609375 -35.484375 23.203125 -35.484375 C 25.972656 -35.484375 28.453125 -34.757812 30.640625 -33.3125 C 32.835938 -31.863281 34.539062 -29.796875 35.75 -27.109375 C 36.957031 -24.421875 37.5625 -21.28125 37.5625 -17.6875 Z M 20.734375 -6.5625 C 23.117188 -6.5625 24.957031 -7.566406 26.25 -9.578125 C 27.550781 -11.597656 28.203125 -14.101562 28.203125 -17.09375 C 28.203125 -20.382812 27.539062 -22.960938 26.21875 -24.828125 C 24.90625 -26.691406 22.96875 -27.625 20.40625 -27.625 C 17.9375 -27.625 16.039062 -26.679688 14.71875 -24.796875 C 13.394531 -22.910156 12.734375 -20.148438 12.734375 -16.515625 C 12.734375 -13.390625 13.445312 -10.945312 14.875 -9.1875 C 16.3125 -7.4375 18.265625 -6.5625 20.734375 -6.5625 Z M 20.734375 -6.5625 "/></g></g></g></svg>